<?xml version="1.0" encoding="UTF-8"?>
<svg id="Ebene_1" xmlns="http://www.w3.org/2000/svg" xmlns:xlink="http://www.w3.org/1999/xlink" version="1.1" viewBox="0 0 209.1 94.5">
  <!-- Generator: Adobe Illustrator 30.6.0, SVG Export Plug-In . SVG Version: 2.1.4 Build 109)  -->
  <defs>
    <style>
      .st0 {
        fill: none;
      }

      .st1 {
        fill: #289672;
      }

      .st2 {
        clip-path: url(#clippath-1);
      }

      .st3 {
        fill: #f2d908;
      }

      .st4 {
        clip-path: url(#clippath);
      }
    </style>
    <clipPath id="clippath">
      <rect class="st0" width="82.5" height="94.5"/>
    </clipPath>
    <clipPath id="clippath-1">
      <rect class="st0" x="196.4" y="71.2" width="12.8" height="12.8"/>
    </clipPath>
  </defs>
  <g>
    <path class="st1" d="M111.1,39.4c0,6.7-3.9,10.7-10.5,10.7s-8.1-2.1-9.6-5.8l5.3-2.1c.7,1.8,2.2,2.9,4.3,2.9s4.8-2,4.8-5.4v-2.4c-1.5,1.4-3.5,2.2-5.7,2.2-5,0-8.9-4.1-8.9-9.4s3.9-9.4,8.9-9.4,4.1.8,5.6,2.2v-1.8h5.8v18.2ZM105.4,30.2c0-2.4-1.9-4.3-4.3-4.3s-4.3,1.9-4.3,4.3,1.9,4.3,4.3,4.3,4.3-1.9,4.3-4.3Z"/>
    <path class="st1" d="M127.8,21v5.1c-.4,0-1-.2-1.7-.2-2.8,0-4.9,1.7-4.9,4.7v8.6h-5.8v-18h5.8v2.5c1.2-1.8,2.9-2.8,5-2.8s1.1,0,1.5.2Z"/>
    <path class="st1" d="M129.1,32.3v-11.1h5.8v10.3c0,1.7,1.2,2.9,2.7,2.9s2.7-1.2,2.7-2.9v-10.3h5.7v11.1c0,4.4-3,7.2-8.5,7.2s-8.5-2.8-8.5-7.2ZM131.2,15.4c0-1.5,1.3-2.7,2.7-2.7s2.7,1.2,2.7,2.7-1.3,2.7-2.7,2.7-2.7-1.3-2.7-2.7ZM138.8,15.4c0-1.5,1.3-2.7,2.7-2.7s2.7,1.2,2.7,2.7-1.2,2.7-2.7,2.7-2.7-1.3-2.7-2.7Z"/>
    <path class="st1" d="M167.4,27.8v11.4h-5.7v-10.4c0-1.6-1.2-2.8-2.8-2.8s-3,1.2-3,2.8v10.4h-5.8v-18h5.8v2.2c1.3-1.6,3.1-2.6,5.1-2.6,3.6,0,6.4,3,6.4,7Z"/>
    <path class="st1" d="M102.9,68.4h-4.3v13.5h-5.8v-13.5h-3v-4.5h3v-6.1c0-3.8,3.2-6.7,7.1-6.7s2.4.2,2.9.5v4.5h-2.2c-1.2,0-2,.9-2,2.4v5.4h4.3v4.5Z"/>
    <path class="st1" d="M103.4,73c0-5.4,4-9.4,10-9.4s10,4,10,9.4-4,9.4-10,9.4-10-4-10-9.4ZM117.7,73c0-2.4-1.8-4.2-4.3-4.3-2.5,0-4.3,1.8-4.3,4.3s1.8,4.2,4.3,4.3c2.4,0,4.3-1.8,4.3-4.3Z"/>
    <path class="st1" d="M138.9,63.8v5.1c-.4,0-1-.2-1.7-.2-2.8,0-4.9,1.7-4.9,4.7v8.6h-5.8v-18h5.8v2.5c1.2-1.8,2.9-2.8,5-2.8s1.1,0,1.5.2Z"/>
    <path class="st1" d="M168.2,70.6v11.4h-5.7v-10.4c0-1.6-1.1-2.8-2.7-2.8s-2.6,1.5-2.6,2.8v10.4h-5.8v-10.4c0-1.6-1-2.8-2.6-2.8s-2.6,1.5-2.6,2.8v10.4h-5.8v-18h5.8v2.2c1.2-1.6,2.8-2.6,4.9-2.6s4.1,1.3,5.1,3.2c1.1-2,3.1-3.2,5.7-3.2,4,0,6.2,2.8,6.2,7Z"/>
    <path class="st1" d="M193.1,77.3v4.7c-.4.2-.9.4-1.5.4-2.4,0-4.4-1.2-5.5-3.1-1.4,1.9-3.6,3.1-6.2,3.1-5,0-8.9-4.1-8.9-9.4s3.9-9.4,8.9-9.4,3.8.7,5.1,1.9v-1.6h5.7v11.6c0,1.5.8,1.8,1.6,1.8h.8ZM185.3,73c0-2.4-1.9-4.3-4.3-4.3s-4.3,1.9-4.3,4.3,1.9,4.3,4.3,4.3,4.3-1.9,4.3-4.3Z"/>
  </g>
  <g class="st4">
    <path class="st1" d="M82.5,38.2h0c0,2.1-.3,4.1-1,5.9h0c-1,2.9-2.8,5.2-5.2,6.8-2.4,1.6-5.2,2.4-8.4,2.4s-.8,0-1.2,0c-.5,0-.9,0-1.4-.1-3-.4-6-1.4-8.8-2.8-.9-.4-1.8-.9-2.6-1.4-5.1-2.9-9.5-6.6-11.7-8.6.3-.3.5-.5.7-.6l.8-.8c1.8,1.6,5,4.3,8.8,6.7,1,.6,2,1.3,3.1,1.9,3.2,1.8,6.7,3.2,10,3.6.4,0,.9,0,1.3.1.3,0,.7,0,1,0,5.7,0,9.9-2.8,11.7-7.8h0c.6-1.6.9-3.4.9-5.2h0c0-1.9-.3-3.6-.9-5.1h0c-1.9-5.4-6.6-8.3-12.7-7.9-.4,0-.9,0-1.3.1-4.4.5-9.7,2.9-15.3,6.9-1.7,1.2-3.3,2.4-4.6,3.5-.7.6-1.3,1.1-1.7,1.5-.1,0-.2.2-.3.3-.3.3-.5.5-.8.7l-.8.7c-.1.1-.4.4-.7.7-.2.2-.5.4-.8.7-2.2,2-6.6,5.7-11.7,8.6-.9.5-1.7,1-2.6,1.4-2.9,1.4-5.9,2.5-8.8,2.8-.5,0-1,.1-1.4.1-.4,0-.8,0-1.2,0-3.2,0-6.1-.8-8.4-2.4-2.3-1.6-4.1-3.9-5.2-6.8h0s0,0,0,0c-.7-1.8-1-3.8-1-5.8H0c0-2.2.3-4.1,1-5.8h0c1-2.9,2.8-5.3,5.2-6.9,2.6-1.8,5.9-2.6,9.6-2.4.5,0,.9,0,1.4.1,8.5,1,17.4,7.8,21.8,11.6.5.4,1,.8,1.3,1.2-.3.3-.5.5-.7.6l-.2.2-.6.6c-.1,0-.2-.2-.3-.3-.5-.4-1.1-1-1.7-1.5-1.3-1.1-2.8-2.3-4.6-3.5-5.6-4-10.9-6.3-15.3-6.9-.5,0-.9,0-1.3-.1-6.2-.3-10.8,2.5-12.7,7.8h0c-.6,1.6-.9,3.3-.9,5.1h0c0,1.9.3,3.6.9,5.2h0c1.8,5,6.1,7.9,11.7,7.9s.7,0,1,0c.4,0,.9,0,1.3-.1,3.4-.4,6.8-1.8,10-3.6,1.1-.6,2.1-1.2,3.1-1.9,3.8-2.4,6.9-5.1,8.8-6.7.3-.3.5-.5.8-.7l.8-.7c.1-.1.4-.4.7-.7,0,0,0,0,.1-.1.1,0,.2-.2.3-.3,0,0,0,0,0,0,0,0,.1-.1.2-.2.4-.3.8-.7,1.3-1.2,4.5-3.8,13.4-10.6,21.8-11.6.5,0,1-.1,1.4-.1,3.8-.2,7,.6,9.6,2.4,2.3,1.6,4.1,3.9,5.2,6.8h0c.7,1.8,1,3.8,1,5.8Z"/>
    <path class="st1" d="M57.5,61.4c0,1.1-.2,2.1-.4,3.2-1.1,6.2-3.7,12.7-7.8,19.3-3.2,5.1-6.3,8.7-7.2,9.7l-.8.8-.8-.8c-.9-1-4-4.6-7.2-9.7-4.1-6.6-6.8-13.1-7.8-19.3-.2-1-.3-2.1-.4-3.2-.2-3.3,0-6.6.8-9.8.8-.4,1.7-.8,2.5-1.3-1,3.4-1.5,7.2-1.2,10.9,0,1,.2,2,.4,3,2.2,12.6,10.7,23.5,13.8,27.1,3.1-3.6,11.6-14.4,13.8-27.1.2-1,.3-2,.4-3,.3-3.7-.2-7.4-1.2-10.9.8.4,1.6.9,2.5,1.3.8,3.2,1.1,6.5.8,9.8Z"/>
    <path class="st1" d="M41.2,9.6c-5.4,0-9.7,4.4-9.7,9.7s4.4,9.7,9.7,9.7,9.7-4.4,9.7-9.7-4.4-9.7-9.7-9.7ZM41.2,31.1c-6.5,0-11.8-5.3-11.8-11.8s5.3-11.8,11.8-11.8,11.8,5.3,11.8,11.8-5.3,11.8-11.8,11.8Z"/>
    <path class="st1" d="M35,10.5c-.7-1.2-2.2-3-5-5-.7-.5-1.5-1-2.3-1.4l1-1.8c.8.5,1.7,1,2.4,1.5,3.1,2.2,4.7,4.2,5.5,5.6l-1.8,1.1Z"/>
    <path class="st1" d="M28.8.4c.4,0,.7.2,1,.4.3.2.6.4.8.7.2.3.4.6.4,1,0,.4,0,.7,0,1.1,0,.4-.2.7-.4,1-.2.3-.4.6-.7.8-.3.2-.6.4-1,.4-.4,0-.7,0-1.1,0-.4,0-.7-.2-1-.4-.3-.2-.6-.4-.8-.7-.2-.3-.4-.6-.4-1,0-.4,0-.7,0-1.1,0-.4.2-.7.4-1,.2-.3.4-.6.7-.8.3-.2.6-.4,1-.4.4,0,.7,0,1.1,0Z"/>
    <path class="st1" d="M47.4,10.5l-1.8-1.1c.8-1.4,2.4-3.4,5.5-5.6.7-.5,1.6-1,2.4-1.5l1,1.8c-.8.5-1.6,1-2.3,1.4-2.8,2-4.2,3.8-5,5Z"/>
    <path class="st1" d="M56.9,2.7c0,.4,0,.7,0,1.1,0,.4-.2.7-.4,1-.2.3-.5.5-.8.7-.3.2-.7.3-1,.4-.4,0-.7,0-1.1,0s-.7-.2-1-.4c-.3-.2-.5-.5-.7-.8-.2-.3-.3-.7-.4-1,0-.4,0-.7,0-1.1,0-.4.2-.7.4-1,.2-.3.5-.5.8-.7.3-.2.7-.3,1-.4s.7,0,1.1,0c.4,0,.7.2,1,.4.3.2.5.5.7.8.2.3.3.7.4,1Z"/>
    <path class="st3" d="M54.3,56.6h-26.2c0-.7.1-1.4.3-2.1h25.7c.1.7.2,1.4.3,2.1Z"/>
    <path class="st3" d="M53.2,67.6c-.2.7-.4,1.4-.6,2.1h-22.7c-.2-.7-.4-1.4-.6-2.1h24Z"/>
    <path class="st3" d="M47.5,80.7c-.4.7-.8,1.4-1.3,2.1h-10.1c-.4-.7-.8-1.3-1.3-2.1h12.6Z"/>
  </g>
  <g class="st2">
    <path class="st1" d="M202.7,75.8h-1.2v2.2h1.2c.9,0,1.3-.4,1.3-1.1s-.5-1.1-1.3-1.1ZM204.1,80.4l-1.1-1.6c0,0-.1,0-.2,0h-1.2v1.6h-1v-5.5h2.2c1.4,0,2.3.7,2.3,1.9s-.4,1.4-1.2,1.7l1.3,1.8h-1.1Z"/>
    <path class="st1" d="M202.8,71.8c-3.3,0-5.9,2.6-5.9,5.9s2.6,5.9,5.9,5.9,5.9-2.6,5.9-5.9-2.6-5.9-5.9-5.9h0ZM202.8,84.2c-.9,0-1.7-.2-2.5-.5-.8-.3-1.5-.8-2.1-1.4-.6-.6-1.1-1.3-1.4-2.1-.3-.8-.5-1.6-.5-2.5s.2-1.7.5-2.5c.3-.8.8-1.5,1.4-2.1.6-.6,1.3-1.1,2.1-1.4.8-.3,1.6-.5,2.5-.5s1.7.2,2.5.5c.8.3,1.5.8,2.1,1.4.6.6,1.1,1.3,1.4,2.1.3.8.5,1.6.5,2.5s-.2,1.7-.5,2.5c-.3.8-.8,1.5-1.4,2.1s-1.3,1.1-2.1,1.4c-.8.3-1.6.5-2.5.5Z"/>
  </g>
</svg>