<svg xmlns="http://www.w3.org/2000/svg" viewBox="107.2 566.2 1390.2 418.8" role="img" aria-label="SoundMoment Event DJ-Team logo"><path fill="currentColor" fill-rule="evenodd" d="M307.8 637.5L279.2 644.5L258.5 652L234.8 668.2L217.5 688.2L208.5 702.8L202.8 717.8L200.2 733.2L196.2 744.5L190.8 751.5L188 766L190 806.2L195 827.5L193 826.5L186 800.5L182.5 765.8L179.5 759.2L174.5 763.8L167.5 778.8L167.8 792.2L171.2 810.8L176.8 823.5L184.2 830.5L190.2 833.2L194.8 831.8L200.5 837L207.5 849L215.5 856.5L233 860.2L246.8 855.8L250.2 851.2L252 839.2L240.8 764L234.5 737L229.5 731L228.2 724L230.8 716L247.8 691.8L260 681L274 673L306.5 662.2L342 660L363.2 664.2L387.8 672.8L408 684.8L424 700.2L433.8 712.8L437.2 722.2L436.2 730L430.8 736L424.2 766L416.8 820L414.8 849.8L418.2 855.2L426.8 860.2L447.8 856.5L457.8 849L465.2 837L471 831.8L475 833.2L485.2 828L497 805L499.2 791.5L497.8 778.5L493.5 768.5L486.5 761.5L482.2 768.8L477.5 807.5L471.5 822L474.5 812L476.5 793.8L477.5 767.2L475.2 750.2L469.8 742.8L460.2 711.2L451.5 693.8L438.5 677.2L424.5 664L409.5 654L392 645.8L372 639.2L352 635.5L332 634.5L307.8 637.5ZM620.8 683.5L639.5 687.5L648.5 692.5L652.8 696.5L652.2 699.5L646.8 702.5L638.2 697.8L617.2 694.5L607.2 697.2L599.8 703.8L597.8 710.5L601.2 717.5L612.5 723.8L631.5 729.2L644.8 735.5L652.2 742.5L656.2 749.8L656.8 757.2L653.2 769.2L646.5 774.8L635.5 780.2L623.5 782.8L610.5 782.2L598.5 779L587.5 773L583.5 767.5L586.5 762.5L594.2 763.2L606.8 769.8L618.5 772.5L629.5 771.5L637.2 768.8L644.2 760L644.8 756L639.8 746.5L607.2 735L594 728.5L588 721.5L585.8 712.5L587.2 701.5L591.8 693.2L606.2 684.5L620.8 683.5ZM1213.8 716.2L1221.2 716.8L1227 719.2L1231 723.8L1237.8 723.5L1247.2 718.5L1256.8 716.5L1266.2 717.5L1273 721L1277 727L1279 742.5L1279 767.5L1276.5 780L1271.5 780L1269 769L1267.5 733.8L1264.5 729.2L1253.2 725.5L1246.8 727.5L1240.2 732.5L1236.8 746.2L1236.2 768.8L1234 780.2L1230 780.8L1223.5 730.5L1220.5 727.5L1210 725.2L1197.2 732.5L1193.8 746.2L1193.2 768.8L1190.8 780.2L1186.2 780.8L1184 765.2L1185.8 717.8L1189.2 717.2L1194.8 722.2L1199.5 722L1213.8 716.2ZM330 590.2L367.5 593.2L409 604.2L446.2 622L475 644.2L501 673.5L519 703.5L529.8 735.8L534.8 773.2L534.2 789.8L526.5 828.8L515 853.2L497 881.8L481.5 902L454 925L420.5 943.8L401.5 951.2L354.5 961L324.5 961L289.5 957L262 950.8L242 942.2L207.2 921.5L177.2 894.2L154.2 863L140 831.8L132.5 798.5L131.2 780.5L134 744L143.5 712.2L159.8 681L171.2 665L186.2 649L221.8 620.8L254 605L291 594.5L330 590.2ZM867.5 715.8L874.5 717.2L884 725.5L886.2 741L886.8 767L884.2 780L878.8 780L875.2 767.5L873.8 742.5L868.5 728.8L859.5 726.2L851.2 727.8L843.8 733.2L840 746.8L840 768.2L837.2 779.5L831.8 780.5L829 765.2L829 733.8L831.2 717.8L835.8 717.2L838.5 718.8L841 724L843 724L859 717.2L867.5 715.8ZM990.5 685.8L997.5 687.2L1009 702L1034.5 743.5L1037.5 742.5L1062.2 700L1073.2 685.8L1079.8 685.2L1083.5 708.8L1084.5 756.2L1082 780L1076 780L1072.2 762.2L1070.8 726.8L1061.8 722.5L1035.2 762.5L1031.8 761.5L1002.2 713L998.8 711L997 762.5L994.5 780.2L989.5 780.8L987 757L987 709L990.5 685.8ZM1400 716L1408 716L1414.8 718.2L1420.2 722.8L1423.2 739L1423.8 767L1421.5 780.2L1416.5 778.8L1414 767.2L1414 745.8L1411.5 732.5L1401.2 725L1395.8 725L1382.5 733.2L1379 746.8L1379 768.2L1376.2 779.2L1370.8 779.8L1368.2 764.5L1368.8 733.5L1371 717.8L1375 717.2L1380.8 723L1385.5 722.8L1400 716ZM1453 697.2L1455 697.8L1456.8 711.5L1461.2 717L1473.5 721.5L1472.5 724.5L1459.8 726L1457.2 728L1456.2 738.5L1457.8 768.2L1459.2 770.8L1471.2 775L1473 777.8L1469 781.2L1462.2 781.2L1452.8 777.8L1447.8 764.5L1447.2 741.5L1444.2 728.5L1436.5 722.2L1437.5 718.8L1444 716.2L1448.2 699.2L1453 697.2ZM756.8 716.8L760.2 718.2L763.5 755L767 768.8L773 772.2L781 772L791 768L796.8 754.2L798.2 730.8L801.5 718.8L806.5 718.2L808.8 733.8L808.2 765.2L806 781L802 781L798.5 776.5L777.8 783L771.2 783L759 778.5L754.8 774.2L752.2 768.8L751 730.8L752 718.2L756.8 716.8ZM1321.8 717L1335.2 719L1344.5 723.2L1349.5 729.8L1353.5 746.5L1342 751.2L1318 751.8L1305.8 754.2L1305.2 758.8L1317.8 770.8L1328.2 772.2L1340.8 768.8L1348 768.8L1350 772.2L1349 775.5L1345 778.5L1322 781.5L1310.2 778L1300.8 770L1296 757.8L1296 741.2L1300.8 728.8L1310.2 720.2L1321.8 717ZM960 685.5L964 686.5L966 710L966 756L964 779.8L960 781.2L953.5 776.8L933.5 782.5L924.5 781.5L916 777L908 769L904 757L904 741L908.5 728.8L917.5 720.2L926.5 716L935.5 716L949.8 721.2L953.2 714.5L955 688L960 685.5ZM678.2 843.2L684.8 843.8L690 846.5L694 851.5L695.5 856L694.5 860L688 862.5L676 863.5L672.2 866.2L676.8 870.8L682.5 872.2L692.2 871.5L690.8 874.5L677.2 876L670.8 873.8L666.2 869.2L664 863.2L664 855.8L666.8 849.8L672.2 845.2L678.2 843.2ZM703.2 715.5L711.8 716.5L724.2 722.2L734.5 740.5L735.2 752.2L731.8 764.8L725 774L715 780L703.5 782L690.5 780L680 773.5L672 762.5L669.2 750.2L671.8 736.8L675.2 727.5L679.8 722.5L686.2 718.8L703.2 715.5ZM597.2 829.5L618.5 832L617.5 834L600.5 834.2L594.2 836.5L593.5 847.8L616.8 851.2L616.2 853.8L599.5 855.8L593.8 859.5L593.2 866.5L599 870.2L617.5 872.2L618.5 874.8L595.8 876L588.5 864.2L589.5 840.8L597.2 829.5ZM900.8 843.8L908.2 845.2L907.8 847L895.5 851.5L896.5 854.5L915 865.8L915 869.2L910.5 874.8L904.2 875.5L890 873L890 871L907 872L909 870L908.5 865.2L894.5 858L890.2 853.8L892.5 846L900.8 843.8ZM1130.8 716.2L1142.2 716.8L1152.8 721.8L1162.2 731.2L1167 742.8L1167 756.2L1164.5 766.2L1159.5 772.8L1148 780.5L1124 779.8L1114.2 776.5L1108.8 771.5L1102.2 760L1104 737.5L1110 727.2L1120 719.8L1130.8 716.2ZM696.8 726.2L688.2 730.8L683 739L681 751L682.2 760.2L686.8 766.8L693 771L701 773L711 772.5L721.2 763L724.2 755.8L724.8 747.2L722.5 739.2L717.5 731.8L711.5 727L704.5 725L696.8 726.2ZM1126 728L1118 734L1113.5 742L1112.5 752L1114.5 760.5L1119.5 767.5L1126.2 771.8L1134.8 773.2L1143.2 770.5L1151.8 763.5L1156.2 755.8L1156.8 747.2L1154.5 739.2L1149.5 731.8L1142.8 727.2L1134.2 725.8L1126 728ZM929.8 726L921.2 730L915.8 737.2L913.2 747.8L914.5 757.5L919.5 766.5L926 771.8L934 773.2L942.2 771L950.8 765L955 755.8L955 743.2L953 734.8L949 730.2L937.2 725L929.8 726ZM726 844.8L732 848.2L735 856.2L733.8 875L731.2 875L728.5 855.5L725.8 848.5L721.2 847.5L713 851.5L709.8 874.5L707.2 875.5L705.2 853.5L709.5 845.2L718.5 843.8L726 844.8ZM799.5 829.2L810.5 829.8L819.5 832.5L826.5 837.5L830.8 844.2L832.2 852.8L830.5 861L825.5 869L819.2 874L811.8 876L796 875.5L792.5 863.5L793.5 840.5L799.5 829.2ZM752 837.5L758 842.5L759.2 846L755.8 848L754 864.8L756 870.8L761.5 874L760.5 876L751 872.5L748 865.5L748 854.5L745.2 842.5L747.8 837.5L752 837.5ZM628.2 844.5L630.8 845.5L638.8 862.5L643.8 862.2L649.2 850.8L653.2 845L655.8 845L648 868.2L643 875.8L639 875.2L634.5 867.2L628.2 844.5ZM1316 726.2L1310 730.8L1306.8 736L1306.2 742L1315.2 744.8L1333.8 744.2L1341.2 739.8L1337.8 731.2L1331.8 726.2L1323.2 724.8L1316 726.2ZM862.2 830.2L864.8 830.8L865.5 840.5L862.2 870.8L858.8 874.2L853.5 876L842.2 874.5L840.8 871.5L855.2 870.8L857.8 868.2L862.2 830.2ZM798.8 844L798.2 862L803.2 870.5L813.8 869.5L821 865.5L825 858.5L826.2 851.8L821.5 840.2L816.5 836.8L802.8 835L798.8 844ZM291 819.2L288.8 881.8L290.2 885.2L295.5 887.2L310.5 887L313.5 885L315 822.5L309.2 801.2L297.8 799.8L291 819.2ZM321.5 787.5L320.5 852.5L326.5 885.5L339.5 886.5L346.2 854.5L346.8 789.5L340.8 756.5L328.2 755.5L321.5 787.5ZM353.5 821.2L352.5 863.8L357.5 885.8L368.5 887.2L374.8 866.8L376.2 824.2L371.2 802.2L359.8 800.8L353.5 821.2ZM263.8 839.2L261.2 841.8L260.8 874.5L266 885.8L276 887.2L282 876.5L284 841L277 838L263.8 839.2ZM382.5 850.8L381.5 874.2L386.2 886.5L396.8 887.5L402.5 876L403.5 852L398.8 839.8L388.2 839.2L382.5 850.8ZM675.2 848.2L671.8 850.8L670.8 855.8L685.2 856.2L689 854L683.8 847.8L675.2 848.2ZM879 830.5L881 831.5L881.5 835.2L879 843.2L876.5 836L879 830.5Z"/></svg>